<svg width="20" height="20" viewBox="0 0 20 20" fill="none" xmlns="http://www.w3.org/2000/svg">
<path d="M18.3333 15.861C18.3333 15.3087 17.8856 14.861 17.3333 14.861H14.1456C12.6259 14.861 11.3889 13.6241 11.3889 12.1039C11.3889 10.5425 12.6259 9.30547 14.1456 9.30547H17.3333C17.8856 9.30547 18.3333 8.85776 18.3333 8.30547V6.83325C18.3333 6.28097 17.8856 5.83325 17.3333 5.83325H2.66667C2.11439 5.83325 1.66667 6.28097 1.66667 6.83325V17.3333C1.66667 17.8855 2.11439 18.3333 2.66667 18.3333H17.3333C17.8856 18.3333 18.3333 17.8855 18.3333 17.3333V15.861Z" fill="#BCBCBC"/>
<path d="M12.5 12.0646C12.5 12.7809 13.1444 13.3333 13.9363 13.3333H17.3333C17.8856 13.3333 18.3333 12.8855 18.3333 12.3333V11.8333C18.3333 11.281 17.8856 10.8333 17.3333 10.8333H13.9363C13.1444 10.8333 12.5 11.3856 12.5 12.0646Z" fill="#BCBCBC"/>
<path d="M15.8333 2.976C15.8333 2.31662 15.2064 1.83774 14.5702 2.01123L6.66667 4.16675H14.8333C15.3856 4.16675 15.8333 3.71903 15.8333 3.16675V2.976Z" fill="#BCBCBC"/>
</svg>
