<svg width="50" height="50" viewBox="0 0 50 50" fill="none" xmlns="http://www.w3.org/2000/svg">
<g id="Icon">
<circle id="Background" cx="25" cy="25" r="25" fill="black"/>
<path id="Vector" d="M25 33.3333C25.4722 33.3333 25.8681 33.1736 26.1875 32.8542C26.5069 32.5347 26.6667 32.1389 26.6667 31.6667C26.6667 31.1944 26.5069 30.7986 26.1875 30.4792C25.8681 30.1597 25.4722 30 25 30C24.5278 30 24.1319 30.1597 23.8125 30.4792C23.4931 30.7986 23.3333 31.1944 23.3333 31.6667C23.3333 32.1389 23.4931 32.5347 23.8125 32.8542C24.1319 33.1736 24.5278 33.3333 25 33.3333ZM23.3333 26.6667H26.6667V16.6667H23.3333V26.6667ZM18.75 40L10 31.25V18.75L18.75 10H31.25L40 18.75V31.25L31.25 40H18.75ZM20.1667 36.6667H29.8333L36.6667 29.8333V20.1667L29.8333 13.3333H20.1667L13.3333 20.1667V29.8333L20.1667 36.6667Z" fill="white"/>
</g>
</svg>
