<svg width="50" height="50" viewBox="0 0 50 50" fill="none" xmlns="http://www.w3.org/2000/svg">
<circle cx="25" cy="25" r="25" fill="black"/>
<path d="M20.3636 40L17.7727 35.4286L12.8636 34.2857L13.3409 29L10 25L13.3409 21L12.8636 15.7143L17.7727 14.5714L20.3636 10L25 12.0714L29.6364 10L32.2273 14.5714L37.1364 15.7143L36.6591 21L40 25L36.6591 29L37.1364 34.2857L32.2273 35.4286L29.6364 40L25 37.9286L20.3636 40ZM21.5227 36.3571L25 34.7857L28.5455 36.3571L30.4545 32.9286L34.2045 32L33.8636 28L36.3864 25L33.8636 21.9286L34.2045 17.9286L30.4545 17.0714L28.4773 13.6429L25 15.2143L21.4545 13.6429L19.5455 17.0714L15.7955 17.9286L16.1364 21.9286L13.6136 25L16.1364 28L15.7955 32.0714L19.5455 32.9286L21.5227 36.3571ZM23.5682 30.0714L31.2727 22L29.3636 19.9286L23.5682 26L20.6364 23L18.7273 25L23.5682 30.0714Z" fill="white"/>
</svg>
