<svg width="20" height="20" viewBox="0 0 20 20" fill="none" xmlns="http://www.w3.org/2000/svg">
<g id="wallet">
<path id="Vector" d="M18.3334 15.861C18.3334 15.3087 17.8856 14.861 17.3334 14.861H14.1457C12.6259 14.861 11.3889 13.6241 11.3889 12.1039C11.3889 10.5425 12.6259 9.30547 14.1457 9.30547H17.3334C17.8856 9.30547 18.3334 8.85776 18.3334 8.30547V6.83325C18.3334 6.28097 17.8856 5.83325 17.3334 5.83325H2.66669C2.1144 5.83325 1.66669 6.28097 1.66669 6.83325V17.3333C1.66669 17.8855 2.1144 18.3333 2.66669 18.3333H17.3334C17.8856 18.3333 18.3334 17.8855 18.3334 17.3333V15.861Z" fill="#F4A503"/>
<path id="Vector_2" d="M12.5 12.0646C12.5 12.7809 13.1444 13.3333 13.9363 13.3333H17.3333C17.8856 13.3333 18.3333 12.8855 18.3333 12.3333V11.8333C18.3333 11.281 17.8856 10.8333 17.3333 10.8333H13.9363C13.1444 10.8333 12.5 11.3856 12.5 12.0646Z" fill="#F4A503"/>
<path id="Vector_3" d="M15.8334 2.976C15.8334 2.31662 15.2064 1.83774 14.5702 2.01123L6.66669 4.16675H14.8334C15.3856 4.16675 15.8334 3.71903 15.8334 3.16675V2.976Z" fill="#F4A503"/>
</g>
</svg>
