<svg width="13" height="14" viewBox="0 0 13 14" fill="none" xmlns="http://www.w3.org/2000/svg">
<path id="Vector" d="M0 13.1752V11.8752H5.85V4.61145C5.56833 4.51395 5.32458 4.36228 5.11875 4.15645C4.91292 3.95061 4.76125 3.70686 4.66375 3.4252H2.6L4.55 7.9752C4.55 8.51686 4.32792 8.97728 3.88375 9.35645C3.43958 9.73561 2.90333 9.9252 2.275 9.9252C1.64667 9.9252 1.11042 9.73561 0.66625 9.35645C0.222083 8.97728 0 8.51686 0 7.9752L1.95 3.4252H0.65V2.1252H4.66375C4.79375 1.74603 5.02667 1.43457 5.3625 1.19082C5.69833 0.94707 6.0775 0.825195 6.5 0.825195C6.9225 0.825195 7.30167 0.94707 7.6375 1.19082C7.97333 1.43457 8.20625 1.74603 8.33625 2.1252H12.35V3.4252H11.05L13 7.9752C13 8.51686 12.7779 8.97728 12.3337 9.35645C11.8896 9.73561 11.3533 9.9252 10.725 9.9252C10.0967 9.9252 9.56042 9.73561 9.11625 9.35645C8.67208 8.97728 8.45 8.51686 8.45 7.9752L10.4 3.4252H8.33625C8.23875 3.70686 8.08708 3.95061 7.88125 4.15645C7.67542 4.36228 7.43167 4.51395 7.15 4.61145V11.8752H13V13.1752H0ZM9.50625 7.9752H11.9437L10.725 5.1477L9.50625 7.9752ZM1.05625 7.9752H3.49375L2.275 5.1477L1.05625 7.9752ZM6.5 3.4252C6.68417 3.4252 6.83854 3.3629 6.96312 3.23832C7.08771 3.11374 7.15 2.95936 7.15 2.7752C7.15 2.59103 7.08771 2.43665 6.96312 2.31207C6.83854 2.18749 6.68417 2.1252 6.5 2.1252C6.31583 2.1252 6.16146 2.18749 6.03687 2.31207C5.91229 2.43665 5.85 2.59103 5.85 2.7752C5.85 2.95936 5.91229 3.11374 6.03687 3.23832C6.16146 3.3629 6.31583 3.4252 6.5 3.4252Z" fill="black"/>
</svg>
