<svg width="50" height="50" viewBox="0 0 50 50" fill="none" xmlns="http://www.w3.org/2000/svg">
<circle cx="25" cy="25" r="25" fill="black"/>
<path d="M14.5 40C13.675 40 12.9688 39.7063 12.3813 39.1188C11.7937 38.5313 11.5 37.825 11.5 37V16C11.5 15.175 11.7937 14.4688 12.3813 13.8813C12.9688 13.2938 13.675 13 14.5 13H16V10H19V13H31V10H34V13H35.5C36.325 13 37.0313 13.2938 37.6188 13.8813C38.2063 14.4688 38.5 15.175 38.5 16V37C38.5 37.825 38.2063 38.5313 37.6188 39.1188C37.0313 39.7063 36.325 40 35.5 40H14.5ZM14.5 37H35.5V22H14.5V37ZM14.5 19H35.5V16H14.5V19Z" fill="white"/>
</svg>
