<svg width="25" height="28" viewBox="0 0 25 28" fill="none" xmlns="http://www.w3.org/2000/svg">
<path fill-rule="evenodd" clip-rule="evenodd" d="M6.48209 20.7502H18.5179C20.4225 20.7502 21.5096 18.6812 20.3669 17.2314C19.861 16.5895 19.5492 15.8282 19.4653 15.0299L19.2944 13.4037C19.1158 13.426 18.9341 13.4375 18.7499 13.4375C16.1611 13.4375 14.0624 11.1709 14.0624 8.37497C14.0624 7.28274 14.3827 6.2713 14.9273 5.4442C14.9065 5.43624 14.8855 5.42838 14.8645 5.42061V5.30393C14.8645 3.89357 13.8059 2.75024 12.5 2.75024C11.1941 2.75024 10.1355 3.89357 10.1355 5.30393V5.42061C7.9038 6.24584 6.25165 8.20721 6.00047 10.5973L5.53465 15.0299C5.45076 15.8282 5.13899 16.5895 4.6331 17.2314C3.49036 18.6812 4.57753 20.7502 6.48209 20.7502ZM21.875 8.37497C21.875 10.2389 20.4759 11.75 18.75 11.75C17.0241 11.75 15.625 10.2389 15.625 8.37497C15.625 6.51101 17.0241 4.99997 18.75 4.99997C20.4759 4.99997 21.875 6.51101 21.875 8.37497ZM12.5 25.2502C13.913 25.2502 15.1195 24.3494 15.5959 23.0807C15.6158 23.0278 15.625 22.971 15.625 22.9139C15.625 22.6508 15.4275 22.4375 15.1839 22.4375H9.81613C9.57249 22.4375 9.37499 22.6508 9.37499 22.9139C9.37499 22.971 9.38419 23.0278 9.40406 23.0807C9.88049 24.3494 11.0869 25.2502 12.5 25.2502Z" fill="white"/>
<path d="M21.875 8.375C21.875 10.239 20.4759 11.75 18.75 11.75C17.0241 11.75 15.625 10.239 15.625 8.375C15.625 6.51104 17.0241 5 18.75 5C20.4759 5 21.875 6.51104 21.875 8.375Z" fill="#F4A503"/>
</svg>
