<svg width="37" height="37" viewBox="0 0 37 37" fill="none" xmlns="http://www.w3.org/2000/svg">
<circle cx="18.5" cy="18.5" r="18.5" fill="black"/>
<path d="M17.4585 17.9582H19.5418V10.6665C19.5418 10.3714 19.442 10.124 19.2423 9.92432C19.0427 9.72466 18.7953 9.62484 18.5002 9.62484C18.205 9.62484 17.9576 9.72466 17.758 9.92432C17.5583 10.124 17.4585 10.3714 17.4585 10.6665V17.9582ZM11.2085 22.1248H25.7918V20.0415H11.2085V22.1248ZM9.69807 28.3748H12.2502V26.2915C12.2502 25.9964 12.35 25.749 12.5496 25.5493C12.7493 25.3497 12.9967 25.2498 13.2918 25.2498C13.587 25.2498 13.8344 25.3497 14.034 25.5493C14.2337 25.749 14.3335 25.9964 14.3335 26.2915V28.3748H17.4585V26.2915C17.4585 25.9964 17.5583 25.749 17.758 25.5493C17.9576 25.3497 18.205 25.2498 18.5002 25.2498C18.7953 25.2498 19.0427 25.3497 19.2423 25.5493C19.442 25.749 19.5418 25.9964 19.5418 26.2915V28.3748H22.6668V26.2915C22.6668 25.9964 22.7666 25.749 22.9663 25.5493C23.166 25.3497 23.4134 25.2498 23.7085 25.2498C24.0036 25.2498 24.251 25.3497 24.4507 25.5493C24.6503 25.749 24.7502 25.9964 24.7502 26.2915V28.3748H27.3022L26.2606 24.2082H10.7397L9.69807 28.3748ZM27.3022 30.4582H9.69807C9.02099 30.4582 8.47412 30.1891 8.05745 29.6509C7.64078 29.1127 7.51925 28.5137 7.69287 27.854L9.12516 22.1248V20.0415C9.12516 19.4686 9.32915 18.9781 9.73714 18.5701C10.1451 18.1622 10.6356 17.9582 11.2085 17.9582H15.3752V10.6665C15.3752 9.79845 15.679 9.0606 16.2866 8.45296C16.8943 7.84532 17.6321 7.5415 18.5002 7.5415C19.3682 7.5415 20.1061 7.84532 20.7137 8.45296C21.3213 9.0606 21.6252 9.79845 21.6252 10.6665V17.9582H25.7918C26.3647 17.9582 26.8552 18.1622 27.2632 18.5701C27.6712 18.9781 27.8752 19.4686 27.8752 20.0415V22.1248L29.3074 27.854C29.5331 28.5137 29.4333 29.1127 29.008 29.6509C28.5826 30.1891 28.014 30.4582 27.3022 30.4582Z" fill="white"/>
</svg>
